<?xml version="1.0"?>
<svg width="566.92932" height="548.03198" xmlns="http://www.w3.org/2000/svg" xmlns:svg="http://www.w3.org/2000/svg" version="1.1" xml:space="preserve">
 <metadata id="metadata8">image/svg+xml</metadata>
 <defs id="defs6">
  <clipPath clipPathUnits="userSpaceOnUse" id="clipPath18">
   <path d="m1.5,411.02l425.2,0l0,-411.02l-425.2,0l0,411.02z" id="path16"/>
  </clipPath>
  <clipPath clipPathUnits="userSpaceOnUse" id="clipPath78">
   <path d="m0,411.02l425.2,0l0,-411.02l-425.2,0l0,411.02z" id="path76"/>
  </clipPath>
  <clipPath clipPathUnits="userSpaceOnUse" id="clipPath178">
   <path d="m0,411.02l425.2,0l0,-411.02l-425.2,0l0,411.02z" id="path176"/>
  </clipPath>
 </defs>
 <g class="layer">
  <title>Layer 1</title>
  <g id="g36" transform="matrix(1.33333 0 0 -1.33333 40.3495 135.36)">
   <path d="m92.29,-132.64c-0.01,0.07 -0.02,0.16 -0.02,0.29l0.03,-0.37c-0.01,0.02 -0.01,0.05 -0.01,0.08" fill="#231f20" fill-rule="nonzero" id="path38"/>
  </g>
  <g id="g40" transform="matrix(1.33333 0 0 -1.33333 66.9662 95.3226)">
   <path d="m152.17,-145.51c0.07,-0.83 0.18,-1.64 0.33,-2.42c0.03,-0.14 0.05,-0.27 0.09,-0.41c-0.16,0.94 -0.3,1.89 -0.42,2.83" fill="#231f20" fill-rule="nonzero" id="path42"/>
  </g>
  <g id="g44" transform="matrix(1.33333 0 0 -1.33333 59.2076 74.7909)">
   <path d="m134.72,-152.11l-0.1,0c-0.04,0 -0.07,0.01 -0.1,0.01c0.06,0 0.13,-0.01 0.2,-0.01" fill="#231f20" fill-rule="nonzero" id="path46"/>
  </g>
  <g id="g48" transform="matrix(1.33333 0 0 -1.33333 59.2076 74.7909)">
   <path d="m134.72,-152.11l-0.1,0c-0.04,0 -0.07,0.01 -0.1,0.01c0.06,0 0.13,-0.01 0.2,-0.01" fill="#231f20" fill-rule="nonzero" id="path50"/>
  </g>
  <g id="g52" transform="matrix(1.33333 0 0 -1.33333 59.2076 74.7909)">
   <path d="m134.72,-152.11l-0.1,0c-0.04,0 -0.07,0.01 -0.1,0.01c0.06,0 0.13,-0.01 0.2,-0.01" fill="#231f20" fill-rule="nonzero" id="path54"/>
  </g>
  <g id="g56" transform="matrix(1.33333 0 0 -1.33333 59.7376 70.0309)">
   <path d="m135.91,-153.64l0,-0.01c0,0 0,0.01 -0.01,0.01l0.01,0z" fill="#231f20" fill-rule="nonzero" id="path58"/>
  </g>
  <g id="g60" transform="matrix(1.33333 0 0 -1.33333 59.8142 59.3676)">
   <path d="m136.08,-157.07c0.01,-0.01 0.01,-0.02 0.02,-0.02c-0.01,0.01 -0.02,0.01 -0.03,0.02l0.01,0z" fill="#231f20" fill-rule="nonzero" id="path62"/>
  </g>
  <g id="g64" transform="matrix(1.33333 0 0 -1.33333 59.7342 70.0309)">
   <path d="m135.9,-153.64c0.01,0 0.01,-0.01 0.01,-0.01l0,0.01l-0.01,0z" fill="#231f20" fill-rule="nonzero" id="path66"/>
  </g>
  <g id="g204" transform="matrix(1.33333 0 0 -1.33333 48.7846 -43.9134)">
   <path d="m109.77,-190.27l0,-0.28c0.02,0.02 0.03,0.03 0.05,0.05l0,0.27c-0.02,-0.01 -0.03,-0.03 -0.05,-0.04" fill="#231f20" fill-rule="nonzero" id="path206"/>
  </g>
  <g id="g208" transform="matrix(1.33333 0 0 -1.33333 48.7846 -43.9134)">
   <path d="m109.77,-190.27l0,-0.28c0.02,0.02 0.03,0.03 0.05,0.05l0,0.27c-0.02,-0.01 -0.03,-0.03 -0.05,-0.04" fill="#231f20" fill-rule="nonzero" id="path210"/>
  </g>
  <g id="svg_1">
   <g id="g28" transform="matrix(1.33333 0 0 -1.33333 82.4729 -151.312)">
    <path d="m187.06,-225.54c2.41,0.34 4.81,1.07 7.09,2.27c0.58,0.3 1.14,0.63 1.67,0.98c3.22,2.07 5.74,4.87 7.44,8.07c1.77,3.34 2.65,7.11 2.53,10.92c-0.09,3.2 -0.87,6.43 -2.46,9.45c-1.12,2.14 -2.56,4 -4.2,5.59c-1.2,1.14 -2.5,2.13 -3.89,2.96c-0.05,0.03 -0.1,0.06 -0.14,0.08c-0.33,0.19 -0.65,0.38 -0.98,0.56c-5.35,2.79 -11.78,3.31 -17.71,1.09c-0.85,-0.32 -1.7,-0.67 -2.51,-1.1c-2.19,-1.15 -4.08,-2.63 -5.68,-4.32c-3.53,-3.72 -5.59,-8.55 -5.92,-13.59c-0.12,-1.77 -0.04,-3.56 0.29,-5.34c0.38,-2.1 1.09,-4.19 2.13,-6.18c1.6,-3.02 3.81,-5.5 6.39,-7.4c1.87,-1.38 3.93,-2.45 6.11,-3.16c3.13,-1.04 6.51,-1.35 9.84,-0.88" fill="#ad478e" fill-rule="nonzero" id="path30"/>
   </g>
   <g id="g32" transform="matrix(1.33333 0 0 -1.33333 124.943 169.912)">
    <path d="m281.87,-122.29c-0.06,1.62 -0.14,3.24 -0.24,4.89c-0.41,6.56 -1.16,13.24 -2.22,19.86c-0.12,0.77 -0.24,1.55 -0.37,2.33c-0.55,3.18 -1.17,6.32 -1.85,9.44c-0.87,3.95 -1.86,7.82 -2.94,11.59c-0.42,1.43 -0.85,2.86 -1.3,4.27c-1.74,5.5 -3.73,10.71 -5.92,15.48c-0.74,1.6 -1.5,3.16 -2.27,4.66c-2.38,4.53 -4.77,8.36 -7.16,11.64c-0.41,0.55 -0.82,1.13 -1.24,1.65c-1.11,1.44 -2.23,2.71 -3.35,3.91c-3.78,3.98 -7.6,6.67 -11.49,8.27c-0.95,0.38 -1.91,0.69 -2.86,0.96c-0.48,0.13 -0.96,0.27 -1.44,0.37c-5.53,1.2 -11.24,0.49 -17.2,-1.34c-2.25,-0.7 -4.55,-1.56 -6.88,-2.55c-3.76,-1.59 -7.62,-3.49 -11.61,-5.56c-2.37,-1.23 -4.8,-2.53 -7.26,-3.83c-1.15,-0.61 -2.3,-1.22 -3.47,-1.83c-2.63,-1.38 -5.21,-2.71 -7.73,-4.03c-2.48,-1.29 -4.9,-2.57 -7.22,-3.86c-4.07,-2.26 -7.86,-4.55 -11.23,-7.01c-1.84,-1.34 -3.55,-2.74 -5.11,-4.21c-3.29,-3.12 -5.89,-6.54 -7.52,-10.5c-0.77,-1.84 -1.3,-3.81 -1.62,-5.9c-0.78,-4.97 -0.28,-10.72 1.85,-17.53c0.92,-2.94 2.18,-6.1 3.73,-9.47c0.75,-1.62 1.54,-3.27 2.46,-4.99c0.77,-1.49 1.64,-3 2.52,-4.52c1.52,-2.53 3.17,-5.1 4.96,-7.66c2.21,-3.17 4.63,-6.35 7.2,-9.5c3.67,-4.49 7.67,-8.92 11.9,-13.21c0.89,-0.9 1.78,-1.8 2.69,-2.68c5.19,-5.09 10.7,-9.92 16.31,-14.37c0.16,-0.12 0.31,-0.25 0.47,-0.37c6.11,-4.81 12.33,-9.14 18.44,-12.76c0.33,-0.2 0.67,-0.39 1,-0.59c6.17,-3.58 12.18,-6.45 17.82,-8.35c2.55,-0.86 5.02,-1.51 7.39,-1.97c4.12,-0.79 7.94,-0.95 11.3,-0.32c1.79,0.33 3.46,0.86 4.98,1.63c0.22,0.12 0.44,0.29 0.64,0.43c4.04,2.43 7.25,6.66 9.7,12.22c0.41,0.94 0.8,1.92 1.18,2.93c0.63,1.72 1.2,3.52 1.71,5.43c1.17,4.39 2.03,9.25 2.59,14.45c0.13,1.25 0.25,2.53 0.35,3.8c0.46,5.94 0.55,12.23 0.31,18.7" fill="#ad478e" fill-rule="nonzero" id="path34"/>
   </g>
  </g>
  <g id="svg_2">
   <g id="g20" transform="matrix(1.33333 0 0 -1.33333 59.353 146.28)">
    <path d="m135.79,-129.13c0.95,0.5 1.89,1.01 2.81,1.54c4.76,2.69 9.17,5.72 13.15,9.07c2.03,1.71 3.95,3.5 5.75,5.38c2.67,2.8 5.05,5.8 7.13,8.97c2.54,3.87 4.6,8.02 6.14,12.45c0.63,1.81 1.17,3.68 1.63,5.59c1.45,6.21 1.92,12.91 1.24,20.12c-0.1,0.93 -0.19,1.88 -0.32,2.83c-0.79,5.91 -2.38,12.16 -4.77,18.71c-1.44,3.92 -3.18,7.96 -5.24,12.12c-0.48,0.97 -0.95,1.93 -1.46,2.91c-0.77,1.45 -1.57,2.92 -2.41,4.4c-1.18,2.1 -2.47,4.22 -3.8,6.34c-2.42,3.89 -5.05,7.81 -7.88,11.74c-3.66,5.07 -7.61,10.14 -11.81,15.12c-0.57,0.66 -1.15,1.32 -1.73,1.98c-1.66,1.93 -3.35,3.85 -5.08,5.74c-3.29,3.58 -6.67,7.1 -10.13,10.49c-0.88,0.86 -1.77,1.7 -2.65,2.54c-4.73,4.5 -9.58,8.76 -14.47,12.69c-1.67,1.34 -3.35,2.65 -5.03,3.91c-4.95,3.71 -9.89,7.02 -14.79,9.89c-1.55,0.91 -3.09,1.77 -4.64,2.58c-5.52,2.93 -10.94,5.23 -16.14,6.73c-1.07,0.31 -2.13,0.56 -3.18,0.8c-0.69,0.16 -1.38,0.31 -2.07,0.44c-6.17,1.16 -11.94,1.04 -17.1,-0.58c-1.48,-0.46 -2.93,-1 -4.31,-1.72c-0.86,-0.46 -1.68,-1.01 -2.5,-1.57c-4.73,-3.26 -8.72,-8.34 -12.01,-14.76c-0.04,-0.05 -0.06,-0.1 -0.09,-0.16c-0.02,-0.05 -0.05,-0.1 -0.08,-0.15c-2.71,-5.36 -4.94,-11.64 -6.7,-18.6c-0.83,-3.28 -1.56,-6.71 -2.18,-10.27c-0.6,-3.45 -1.12,-7.01 -1.54,-10.67c-0.55,-4.84 -0.92,-9.84 -1.14,-14.94c-0.11,-2.55 -0.17,-5.12 -0.2,-7.72c-0.05,-5.42 0.07,-10.9 0.36,-16.41c0.14,-2.62 0.32,-5.24 0.54,-7.86c0.43,-5.1 1,-10.16 1.72,-15.16c0.54,-3.73 1.15,-7.41 1.85,-11.03c0.71,-3.73 1.5,-7.39 2.38,-10.95c1.61,-6.52 3.51,-12.71 5.65,-18.46c0.3,-0.78 0.58,-1.56 0.88,-2.33c0.48,-1.18 0.96,-2.32 1.44,-3.46c1.1,-2.53 2.23,-4.99 3.43,-7.29c1.57,-2.98 3.22,-5.74 4.97,-8.3c3.48,-5.09 7.28,-9.35 11.34,-12.88c1.33,-1.16 2.69,-2.23 4.07,-3.23c4.85,-3.51 9.99,-6.08 15.32,-7.86c3.58,-1.2 7.23,-2.04 10.94,-2.57c2.76,-0.39 5.52,-0.63 8.31,-0.69c2.2,-0.06 4.42,0 6.65,0.14c4.16,0.24 8.34,0.78 12.49,1.61c4.48,0.87 8.92,2.06 13.26,3.48c1.96,0.63 3.9,1.31 5.81,2.02c5.2,1.97 10.22,4.23 14.94,6.65c0.43,0.22 0.84,0.42 1.25,0.64" fill="#46a1ae" fill-rule="nonzero" id="path22"/>
   </g>
   <g id="g24" transform="matrix(1.33333 0 0 -1.33333 87.3693 290.087)">
    <path d="m198.08,-82.91c-0.16,0.67 -0.34,1.34 -0.52,2c-0.07,0.24 -0.12,0.48 -0.19,0.73c-0.97,3.36 -2.28,6.69 -3.98,9.93c-1.83,3.5 -3.78,6.18 -5.81,8.31c-2.87,3.03 -5.94,4.81 -9.2,5.59c-4.01,0.98 -8.31,0.51 -12.89,-0.88c-2.02,-0.61 -4.1,-1.4 -6.22,-2.32c-4.39,-1.88 -9.01,-4.28 -13.88,-6.84c-0.84,-0.45 -1.68,-0.89 -2.55,-1.35c-0.87,-0.45 -1.71,-0.89 -2.56,-1.34c-4.87,-2.55 -9.48,-4.98 -13.52,-7.52c-1.96,-1.23 -3.79,-2.49 -5.44,-3.8c-3.76,-2.99 -6.58,-6.27 -8.05,-10.12c-1.21,-3.13 -1.48,-6.66 -0.63,-10.74c0.6,-2.88 1.7,-6.02 3.53,-9.51c1.71,-3.24 3.71,-6.2 5.92,-8.91c0.16,-0.19 0.33,-0.38 0.49,-0.57c0.45,-0.53 0.9,-1.06 1.35,-1.57c4.92,-5.41 10.77,-9.55 17.07,-12.28l0.55,-0.41l0.19,0.09c6.12,-2.52 12.61,-3.73 19.06,-3.4c4.66,0.25 9.27,1.33 13.69,3.23c0.93,0.41 1.86,0.79 2.77,1.26c0.9,0.48 1.75,1.02 2.6,1.56c4.08,2.56 7.58,5.74 10.44,9.44c3.94,5.1 6.64,11.14 8.03,17.62l0.18,0.08l-0.02,0.69c1.34,6.73 1.25,13.91 -0.41,21.03" fill="#46a1ae" fill-rule="nonzero" id="path26"/>
   </g>
  </g>
 </g>
</svg>