<svg id="SvgjsSvg1001" width="288" height="288" xmlns="http://www.w3.org/2000/svg" version="1.1" xmlns:xlink="http://www.w3.org/1999/xlink" xmlns:svgjs="http://svgjs.com/svgjs"><defs id="SvgjsDefs1002"></defs><g id="SvgjsG1008" transform="matrix(1,0,0,1,0,0)"><svg xmlns="http://www.w3.org/2000/svg" viewBox="0 0 566.929 548.032" width="288" height="288"><defs><clipPath id="a" clipPathUnits="userSpaceOnUse"><path d="M 0,411.024 H 425.197 V 0 H 0 Z"></path></clipPath><clipPath id="b" clipPathUnits="userSpaceOnUse"><path d="M 0,411.024 H 425.197 V 0 H 0 Z"></path></clipPath><clipPath id="c" clipPathUnits="userSpaceOnUse"><path d="M 0,411.024 H 425.197 V 0 H 0 Z"></path></clipPath></defs><g transform="matrix(1.33333 0 0 -1.33333 0 548.032)"><g clip-path="url(#a)"><path fill="#46a1ae" d="m 0,0 c 0.95,0.497 1.885,1.01 2.807,1.536 4.768,2.695 9.171,5.727 13.149,9.074 2.034,1.714 3.957,3.5 5.751,5.383 2.672,2.798 5.048,5.795 7.131,8.964 2.541,3.877 4.605,8.018 6.137,12.45 0.634,1.815 1.178,3.681 1.63,5.591 1.453,6.211 1.924,12.915 1.24,20.119 -0.091,0.938 -0.188,1.883 -0.313,2.837 -0.796,5.91 -2.378,12.152 -4.769,18.703 -1.441,3.925 -3.182,7.967 -5.246,12.122 -0.477,0.972 -0.949,1.927 -1.46,2.908 -0.766,1.457 -1.568,2.927 -2.407,4.403 -1.185,2.095 -2.469,4.216 -3.799,6.344 -2.42,3.882 -5.053,7.808 -7.878,11.735 -3.666,5.071 -7.613,10.143 -11.818,15.117 -0.57,0.665 -1.143,1.323 -1.721,1.983 -1.668,1.931 -3.355,3.846 -5.082,5.738 -3.289,3.588 -6.668,7.102 -10.13,10.491 -0.882,0.862 -1.77,1.701 -2.656,2.544 -4.726,4.495 -9.572,8.756 -14.466,12.684 -1.674,1.345 -3.355,2.656 -5.033,3.917 -4.942,3.703 -9.889,7.013 -14.788,9.884 -1.548,0.911 -3.09,1.769 -4.634,2.585 -5.525,2.926 -10.945,5.224 -16.142,6.723 -1.071,0.311 -2.131,0.56 -3.182,0.801 -0.695,0.161 -1.384,0.314 -2.074,0.446 -6.172,1.157 -11.942,1.042 -17.101,-0.581 -1.476,-0.459 -2.927,-1.003 -4.301,-1.724 -0.864,-0.453 -1.688,-1.004 -2.508,-1.567 -4.73,-3.257 -8.722,-8.336 -12.01,-14.758 -0.034,-0.051 -0.059,-0.106 -0.083,-0.162 -0.028,-0.046 -0.052,-0.095 -0.082,-0.151 -2.716,-5.362 -4.938,-11.641 -6.701,-18.595 -0.83,-3.288 -1.558,-6.712 -2.184,-10.273 -0.599,-3.451 -1.12,-7.01 -1.539,-10.666 -0.544,-4.843 -0.915,-9.848 -1.137,-14.941 -0.107,-2.553 -0.174,-5.128 -0.198,-7.72 -0.053,-5.419 0.062,-10.904 0.356,-16.413 0.14,-2.62 0.323,-5.243 0.54,-7.861 0.434,-5.096 1.004,-10.158 1.721,-15.156 0.536,-3.729 1.153,-7.412 1.848,-11.035 0.714,-3.727 1.503,-7.387 2.382,-10.951 1.61,-6.52 3.505,-12.706 5.65,-18.453 0.295,-0.786 0.584,-1.567 0.883,-2.333 0.472,-1.177 0.955,-2.323 1.44,-3.464 1.096,-2.528 2.225,-4.991 3.425,-7.287 1.567,-2.983 3.226,-5.739 4.97,-8.298 3.482,-5.094 7.281,-9.354 11.346,-12.886 1.325,-1.157 2.684,-2.228 4.07,-3.231 4.841,-3.504 9.989,-6.071 15.318,-7.86 3.577,-1.193 7.232,-2.04 10.939,-2.567 2.754,-0.389 5.521,-0.628 8.308,-0.685 2.204,-0.06 4.422,-0.006 6.649,0.134 4.166,0.243 8.346,0.781 12.492,1.608 4.484,0.874 8.915,2.069 13.259,3.482 1.958,0.63 3.901,1.308 5.807,2.027 5.206,1.964 10.226,4.227 14.947,6.649 C -0.823,-0.419 -0.41,-0.215 0,0" transform="translate(178.059 172.18)" class="color46a1ae svgShape"></path><path fill="#46a1ae" d="m 0,0 c -0.158,0.671 -0.336,1.337 -0.52,2.001 -0.071,0.242 -0.121,0.484 -0.187,0.73 -0.975,3.36 -2.282,6.686 -3.983,9.933 -1.828,3.496 -3.776,6.175 -5.809,8.304 -2.87,3.028 -5.937,4.81 -9.2,5.594 -4.008,0.975 -8.308,0.512 -12.892,-0.885 -2.021,-0.605 -4.1,-1.397 -6.217,-2.314 -4.388,-1.88 -9.012,-4.286 -13.881,-6.846 -0.844,-0.445 -1.682,-0.89 -2.551,-1.345 -0.867,-0.454 -1.711,-0.887 -2.564,-1.339 -4.871,-2.549 -9.475,-4.986 -13.52,-7.526 -1.953,-1.227 -3.786,-2.489 -5.435,-3.799 -3.76,-2.991 -6.581,-6.265 -8.052,-10.115 -1.209,-3.13 -1.483,-6.663 -0.631,-10.747 0.604,-2.877 1.706,-6.012 3.535,-9.502 1.707,-3.242 3.708,-6.204 5.921,-8.912 0.153,-0.196 0.327,-0.382 0.487,-0.574 0.448,-0.528 0.897,-1.054 1.349,-1.568 4.918,-5.415 10.767,-9.555 17.068,-12.28 l 0.556,-0.41 0.182,0.092 c 6.12,-2.527 12.618,-3.735 19.069,-3.398 4.654,0.25 9.268,1.33 13.684,3.229 0.93,0.404 1.86,0.787 2.773,1.257 0.901,0.479 1.746,1.022 2.596,1.564 4.078,2.551 7.581,5.734 10.44,9.431 3.941,5.107 6.641,11.14 8.034,17.625 l 0.178,0.082 -0.019,0.686 C 1.746,-14.297 1.659,-7.124 0,0" transform="translate(262.108 110.548)" class="color46a1ae svgShape"></path><path fill="#46a1ae" d="m 0,0 c 2.411,0.34 4.806,1.067 7.086,2.265 0.587,0.303 1.14,0.638 1.677,0.987 3.215,2.066 5.734,4.864 7.441,8.07 1.769,3.336 2.644,7.109 2.526,10.922 -0.093,3.196 -0.875,6.425 -2.461,9.449 -1.124,2.137 -2.561,3.997 -4.202,5.586 -1.195,1.14 -2.498,2.131 -3.892,2.964 -0.049,0.028 -0.094,0.054 -0.139,0.08 -0.325,0.192 -0.645,0.382 -0.977,0.553 -5.351,2.793 -11.777,3.316 -17.708,1.093 -0.855,-0.314 -1.697,-0.673 -2.514,-1.102 -2.185,-1.144 -4.075,-2.623 -5.68,-4.32 -3.525,-3.721 -5.589,-8.551 -5.922,-13.586 -0.114,-1.77 -0.034,-3.56 0.29,-5.342 0.389,-2.103 1.092,-4.188 2.138,-6.183 1.592,-3.02 3.803,-5.496 6.385,-7.397 1.87,-1.375 3.929,-2.447 6.11,-3.159 C -6.705,-0.157 -3.328,-0.47 0,0" transform="translate(247.419 299.719)" class="color46a1ae svgShape"></path><path fill="#46a1ae" d="m 0,0 c -0.06,1.619 -0.142,3.243 -0.239,4.892 -0.415,6.558 -1.16,13.239 -2.22,19.856 -0.122,0.775 -0.236,1.55 -0.373,2.328 -0.547,3.181 -1.166,6.328 -1.85,9.443 -0.871,3.947 -1.854,7.818 -2.94,11.588 -0.414,1.437 -0.851,2.867 -1.295,4.269 -1.746,5.508 -3.737,10.711 -5.927,15.487 -0.736,1.6 -1.494,3.158 -2.269,4.659 -2.381,4.524 -4.763,8.355 -7.158,11.633 -0.412,0.559 -0.822,1.138 -1.235,1.66 -1.111,1.43 -2.231,2.708 -3.353,3.901 -3.784,3.987 -7.599,6.677 -11.49,8.273 -0.952,0.386 -1.91,0.692 -2.863,0.959 -0.481,0.128 -0.959,0.274 -1.437,0.374 -5.532,1.197 -11.236,0.492 -17.2,-1.346 -2.252,-0.696 -4.549,-1.56 -6.877,-2.543 -3.76,-1.593 -7.625,-3.493 -11.612,-5.561 -2.376,-1.231 -4.801,-2.528 -7.258,-3.834 -1.158,-0.61 -2.307,-1.219 -3.476,-1.83 -2.626,-1.377 -5.206,-2.712 -7.733,-4.026 -2.478,-1.293 -4.891,-2.569 -7.213,-3.862 -4.076,-2.261 -7.864,-4.55 -11.229,-7.006 -1.841,-1.348 -3.557,-2.748 -5.111,-4.215 -3.292,-3.115 -5.895,-6.535 -7.522,-10.503 -0.768,-1.838 -1.298,-3.809 -1.623,-5.895 -0.773,-4.972 -0.281,-10.721 1.852,-17.527 0.923,-2.946 2.182,-6.099 3.734,-9.469 0.746,-1.622 1.539,-3.27 2.453,-4.991 0.772,-1.496 1.643,-2.999 2.528,-4.521 1.514,-2.533 3.17,-5.098 4.956,-7.666 2.211,-3.168 4.625,-6.348 7.204,-9.497 3.667,-4.489 7.669,-8.917 11.894,-13.209 0.89,-0.899 1.782,-1.801 2.688,-2.685 5.195,-5.089 10.7,-9.919 16.31,-14.365 0.159,-0.121 0.314,-0.246 0.478,-0.371 6.103,-4.812 12.324,-9.136 18.431,-12.76 0.337,-0.199 0.678,-0.39 1.008,-0.589 6.166,-3.581 12.18,-6.446 17.813,-8.351 2.556,-0.86 5.021,-1.514 7.39,-1.966 4.12,-0.791 7.941,-0.951 11.304,-0.324 1.791,0.327 3.46,0.863 4.984,1.632 0.219,0.122 0.431,0.289 0.64,0.427 4.034,2.429 7.244,6.662 9.692,12.225 0.413,0.939 0.799,1.917 1.18,2.926 0.629,1.718 1.205,3.517 1.711,5.43 1.172,4.393 2.032,9.254 2.592,14.454 0.134,1.249 0.25,2.522 0.346,3.801 C 0.147,-12.762 0.242,-6.471 0,0" transform="translate(374.828 162.051)" class="color46a1ae svgShape"></path><path fill="#ffffff" d="M 0,0 C -0.01,0.07 -0.02,0.16 -0.02,0.29 L 0.01,-0.08 C 0,-0.06 0,-0.03 0,0" transform="translate(121.049 176.86)" class="color231f20 svgShape"></path><path fill="#ffffff" d="M 0,0 C 0.07,-0.83 0.18,-1.64 0.33,-2.42 0.36,-2.56 0.38,-2.69 0.42,-2.83 0.26,-1.89 0.12,-0.94 0,0" transform="translate(200.899 194.018)" class="color231f20 svgShape"></path><path fill="#ffffff" d="M 0,0 H -0.1 C -0.14,0 -0.17,0.01 -0.2,0.01 -0.14,0.01 -0.07,0 0,0" transform="translate(177.623 202.818)" class="color231f20 svgShape"></path><path fill="#ffffff" d="M 0,0 H -0.1 C -0.14,0 -0.17,0.01 -0.2,0.01 -0.14,0.01 -0.07,0 0,0" transform="translate(177.623 202.818)" class="color231f20 svgShape"></path><path fill="#ffffff" d="M 0,0 H -0.1 C -0.14,0 -0.17,0.01 -0.2,0.01 -0.14,0.01 -0.07,0 0,0" transform="translate(177.623 202.818)" class="color231f20 svgShape"></path><path fill="#ffffff" d="M 0,0 V -0.01 C 0,-0.01 0,0 -0.01,0 Z" transform="translate(179.213 204.858)" class="color231f20 svgShape"></path><path fill="#ffffff" d="M 0,0 C 0.01,-0.01 0.01,-0.02 0.02,-0.02 0.01,-0.01 0,-0.01 -0.01,0 Z" transform="translate(179.443 209.428)" class="color231f20 svgShape"></path><path fill="#ffffff" d="M 0,0 C 0.01,0 0.01,-0.01 0.01,-0.01 V 0 Z" transform="translate(179.203 204.858)" class="color231f20 svgShape"></path></g><path fill="#ffffff" d="M 0,0 V -22.85 H -3.369 V 0 h -8.676 V 2.944 H 8.675 L 8.675,0 Z" transform="translate(87.267 131.058)" class="color231f20 svgShape"></path><g clip-path="url(#b)"><path fill="#ffffff" d="M 0,0 C -0.233,-0.156 -0.445,-0.285 -0.639,-0.387 -0.833,-0.491 -1.072,-0.581 -1.356,-0.658 -1.64,-0.736 -2.001,-0.808 -2.44,-0.871 -2.88,-0.936 -3.447,-1.007 -4.144,-1.085 -5.177,-1.214 -6.036,-1.369 -6.72,-1.549 -7.404,-1.73 -7.953,-1.956 -8.366,-2.227 -8.779,-2.499 -9.07,-2.834 -9.237,-3.234 c -0.168,-0.401 -0.252,-0.871 -0.252,-1.414 0,-0.981 0.329,-1.755 0.988,-2.324 0.658,-0.568 1.555,-0.851 2.691,-0.851 1.085,0 2.085,0.219 3.002,0.658 0.916,0.439 1.646,1.046 2.188,1.821 0.258,0.361 0.426,0.709 0.504,1.045 C -0.039,-3.964 0,-3.447 0,-2.75 Z M 4.957,-9.605 C 4.595,-9.734 4.241,-9.831 3.892,-9.896 3.543,-9.959 3.176,-9.992 2.788,-9.992 c -1.73,0 -2.621,0.916 -2.672,2.75 -0.904,-1.06 -1.892,-1.82 -2.963,-2.286 -1.072,-0.464 -2.343,-0.696 -3.815,-0.696 -1.859,0 -3.318,0.472 -4.376,1.416 -1.059,0.945 -1.588,2.245 -1.588,3.902 0,3.311 2.208,5.252 6.623,5.821 l 2.672,0.35 c 1.239,0.155 2.091,0.407 2.556,0.756 0.465,0.349 0.697,0.925 0.697,1.728 0,2.174 -1.394,3.261 -4.182,3.261 -1.498,0 -2.641,-0.298 -3.428,-0.891 C -8.476,5.525 -8.869,4.556 -8.869,3.214 h -2.982 c 0,2.014 0.69,3.576 2.072,4.687 1.381,1.11 3.285,1.665 5.712,1.665 1.265,0 2.407,-0.168 3.428,-0.504 C 0.38,8.727 1.187,8.274 1.781,7.707 2.246,7.242 2.556,6.687 2.711,6.042 2.866,5.396 2.943,4.493 2.943,3.331 v -8.754 c 0,-0.749 0.091,-1.271 0.271,-1.568 0.181,-0.296 0.49,-0.445 0.93,-0.445 0.258,0 0.529,0.064 0.813,0.194 z" transform="translate(106.449 117.89)" class="color231f20 svgShape"></path><path fill="#ffffff" d="m 0,0 v 11.024 c 0,1.088 -0.065,1.993 -0.194,2.718 -0.129,0.724 -0.348,1.306 -0.658,1.746 -0.31,0.44 -0.717,0.751 -1.22,0.932 -0.504,0.181 -1.143,0.272 -1.917,0.272 -1.084,0 -2.053,-0.252 -2.905,-0.757 -0.852,-0.504 -1.459,-1.197 -1.82,-2.077 -0.13,-0.284 -0.233,-0.583 -0.31,-0.893 -0.078,-0.311 -0.142,-0.647 -0.194,-1.009 -0.052,-0.362 -0.09,-0.782 -0.116,-1.261 -0.026,-0.48 -0.038,-1.029 -0.038,-1.65 V 0 h -3.06 v 18.707 h 2.866 v -2.906 c 0.826,1.214 1.743,2.092 2.749,2.634 1.008,0.543 2.247,0.813 3.718,0.813 1.24,0 2.337,-0.245 3.293,-0.736 0.955,-0.49 1.651,-1.162 2.091,-2.013 0.155,-0.285 0.283,-0.569 0.387,-0.852 0.103,-0.285 0.181,-0.595 0.232,-0.93 0.052,-0.336 0.091,-0.71 0.117,-1.123 0.025,-0.414 0.038,-0.917 0.038,-1.511 L 3.059,0 Z" transform="translate(126.483 108.208)" class="color231f20 svgShape"></path><path fill="#ffffff" d="m 0,0 c 0,2.22 -0.484,3.944 -1.452,5.17 -0.968,1.227 -2.318,1.84 -4.047,1.84 -1.704,0 -3.047,-0.633 -4.028,-1.897 -0.982,-1.266 -1.472,-3.009 -1.472,-5.229 0,-2.247 0.484,-4.009 1.453,-5.287 0.968,-1.278 2.304,-1.917 4.008,-1.917 1.704,0 3.053,0.664 4.047,1.994 C -0.497,-3.996 0,-2.221 0,0 m 3.099,-7.63 c 0,-1.523 -0.097,-2.75 -0.291,-3.679 -0.194,-0.93 -0.523,-1.781 -0.988,-2.556 -0.671,-1.136 -1.64,-1.995 -2.904,-2.576 -1.265,-0.581 -2.776,-0.871 -4.532,-0.871 -1.161,0 -2.226,0.123 -3.195,0.368 -0.968,0.246 -1.795,0.6 -2.478,1.065 -0.685,0.465 -1.22,1.04 -1.608,1.724 -0.387,0.684 -0.581,1.478 -0.581,2.381 h 3.176 c 0,-1.058 0.439,-1.846 1.317,-2.362 0.878,-0.516 2.039,-0.774 3.486,-0.774 1.936,0 3.33,0.477 4.182,1.432 0.852,0.956 1.304,2.517 1.356,4.686 l 0.039,2.285 c -0.723,-1.214 -1.549,-2.078 -2.479,-2.595 -0.929,-0.516 -2.105,-0.774 -3.524,-0.774 -1.24,0 -2.363,0.226 -3.37,0.678 -1.007,0.451 -1.872,1.09 -2.595,1.916 -0.723,0.827 -1.278,1.821 -1.665,2.983 -0.387,1.162 -0.581,2.465 -0.581,3.912 0,1.472 0.206,2.82 0.62,4.046 0.412,1.227 0.987,2.272 1.723,3.138 0.736,0.865 1.62,1.543 2.653,2.033 1.033,0.491 2.169,0.736 3.408,0.736 1.317,0 2.446,-0.258 3.389,-0.774 0.942,-0.518 1.788,-1.343 2.537,-2.48 v 2.712 h 2.905 z" transform="translate(146.928 117.89)" class="color231f20 svgShape"></path><path fill="#ffffff" d="M 0,0 C 0,2.278 -0.523,4.064 -1.569,5.358 -2.614,6.653 -4.054,7.3 -5.887,7.3 -7.72,7.3 -9.173,6.64 -10.244,5.32 -11.316,4 -11.851,2.226 -11.851,0 c 0,-2.33 0.535,-4.142 1.607,-5.436 1.071,-1.295 2.55,-1.942 4.435,-1.942 1.807,0 3.227,0.654 4.26,1.96 C -0.517,-4.11 0,-2.305 0,0 m 3.137,-0.02 c 0,-3.124 -0.788,-5.557 -2.362,-7.3 -1.575,-1.742 -3.77,-2.614 -6.584,-2.614 -1.394,0 -2.66,0.232 -3.796,0.697 -1.136,0.465 -2.105,1.123 -2.905,1.975 -0.8,0.852 -1.413,1.891 -1.839,3.118 -0.426,1.226 -0.639,2.601 -0.639,4.124 0,1.498 0.213,2.853 0.639,4.067 0.426,1.213 1.039,2.253 1.839,3.118 0.8,0.865 1.763,1.53 2.886,1.994 1.123,0.465 2.382,0.697 3.776,0.697 1.394,0 2.646,-0.232 3.757,-0.697 C -0.981,8.695 -0.039,8.037 0.736,7.184 1.51,6.332 2.104,5.299 2.518,4.086 2.93,2.872 3.137,1.504 3.137,-0.02" transform="translate(168.36 117.6)" class="color231f20 svgShape"></path><path fill="#ffffff" d="M 0,0 V 23.044 L -8.056,0 h -2.943 l -8.675,22.811 V 0 h -3.254 v 25.794 h 5.035 l 8.366,-22.27 8.055,22.27 H 3.253 L 3.253,0 Z" transform="translate(207.63 108.208)" class="color231f20 svgShape"></path><path fill="#ffffff" d="M 0,0 C -0.233,-0.156 -0.445,-0.285 -0.639,-0.387 -0.833,-0.491 -1.072,-0.581 -1.356,-0.658 -1.64,-0.736 -2.001,-0.808 -2.44,-0.871 -2.879,-0.936 -3.447,-1.007 -4.144,-1.085 -5.177,-1.214 -6.036,-1.369 -6.72,-1.549 -7.404,-1.73 -7.953,-1.956 -8.366,-2.227 -8.779,-2.499 -9.07,-2.834 -9.237,-3.234 c -0.168,-0.401 -0.252,-0.871 -0.252,-1.414 0,-0.981 0.329,-1.755 0.988,-2.324 0.658,-0.568 1.555,-0.851 2.691,-0.851 1.085,0 2.085,0.219 3.002,0.658 0.916,0.439 1.646,1.046 2.188,1.821 0.258,0.361 0.426,0.709 0.504,1.045 C -0.039,-3.964 0,-3.447 0,-2.75 Z M 4.957,-9.605 C 4.595,-9.734 4.241,-9.831 3.892,-9.896 3.544,-9.959 3.176,-9.992 2.788,-9.992 c -1.73,0 -2.621,0.916 -2.672,2.75 -0.904,-1.06 -1.892,-1.82 -2.963,-2.286 -1.072,-0.464 -2.343,-0.696 -3.815,-0.696 -1.859,0 -3.318,0.472 -4.376,1.416 -1.059,0.945 -1.588,2.245 -1.588,3.902 0,3.311 2.208,5.252 6.623,5.821 l 2.672,0.35 c 1.239,0.155 2.091,0.407 2.556,0.756 0.465,0.349 0.697,0.925 0.697,1.728 0,2.174 -1.394,3.261 -4.182,3.261 -1.498,0 -2.641,-0.298 -3.428,-0.891 C -8.476,5.525 -8.869,4.556 -8.869,3.214 h -2.982 c 0,2.014 0.69,3.576 2.072,4.687 1.381,1.11 3.285,1.665 5.712,1.665 1.265,0 2.407,-0.168 3.428,-0.504 C 0.38,8.727 1.187,8.274 1.781,7.707 2.246,7.242 2.556,6.687 2.711,6.042 2.866,5.396 2.943,4.493 2.943,3.331 v -8.754 c 0,-0.749 0.091,-1.271 0.271,-1.568 0.181,-0.296 0.49,-0.445 0.93,-0.445 0.258,0 0.529,0.064 0.813,0.194 z" transform="translate(227.363 117.89)" class="color231f20 svgShape"></path><path fill="#ffffff" d="M 0,0 C -1.653,0 -3.008,-0.542 -4.067,-1.626 -4.403,-1.988 -4.686,-2.369 -4.918,-2.768 -5.151,-3.169 -5.338,-3.64 -5.48,-4.183 -5.623,-4.724 -5.719,-5.37 -5.771,-6.119 -5.823,-6.868 -5.848,-7.772 -5.848,-8.83 v -7.242 h -3.06 V 2.635 h 2.944 v -3.912 c 0.671,1.549 1.555,2.677 2.653,3.388 1.096,0.71 2.523,1.065 4.279,1.065 L 0.968,0 Z" transform="translate(243.872 124.28)" class="color231f20 svgShape"></path><path fill="#ffffff" d="M 0,0 C -0.233,-0.156 -0.445,-0.285 -0.639,-0.387 -0.833,-0.491 -1.072,-0.581 -1.356,-0.658 -1.64,-0.736 -2.001,-0.808 -2.44,-0.871 -2.879,-0.936 -3.447,-1.007 -4.144,-1.085 -5.177,-1.214 -6.036,-1.369 -6.72,-1.549 -7.404,-1.73 -7.953,-1.956 -8.366,-2.227 -8.779,-2.499 -9.07,-2.834 -9.237,-3.234 c -0.168,-0.401 -0.252,-0.871 -0.252,-1.414 0,-0.981 0.329,-1.755 0.988,-2.324 0.658,-0.568 1.555,-0.851 2.691,-0.851 1.085,0 2.085,0.219 3.002,0.658 0.916,0.439 1.646,1.046 2.188,1.821 0.258,0.361 0.426,0.709 0.504,1.045 C -0.039,-3.964 0,-3.447 0,-2.75 Z M 4.957,-9.605 C 4.595,-9.734 4.241,-9.831 3.892,-9.896 3.544,-9.959 3.176,-9.992 2.788,-9.992 c -1.73,0 -2.621,0.916 -2.672,2.75 -0.904,-1.06 -1.892,-1.82 -2.963,-2.286 -1.072,-0.464 -2.343,-0.696 -3.815,-0.696 -1.859,0 -3.318,0.472 -4.376,1.416 -1.059,0.945 -1.588,2.245 -1.588,3.902 0,3.311 2.208,5.252 6.623,5.821 l 2.672,0.35 c 1.239,0.155 2.091,0.407 2.556,0.756 0.465,0.349 0.697,0.925 0.697,1.728 0,2.174 -1.394,3.261 -4.182,3.261 -1.498,0 -2.641,-0.298 -3.428,-0.891 C -8.476,5.525 -8.869,4.556 -8.869,3.214 h -2.982 c 0,2.014 0.69,3.576 2.072,4.687 1.381,1.11 3.285,1.665 5.712,1.665 1.265,0 2.407,-0.168 3.428,-0.504 C 0.38,8.727 1.187,8.274 1.781,7.707 2.246,7.242 2.556,6.687 2.711,6.042 2.866,5.396 2.943,4.493 2.943,3.331 v -8.754 c 0,-0.749 0.091,-1.271 0.271,-1.568 0.181,-0.296 0.49,-0.445 0.93,-0.445 0.258,0 0.529,0.064 0.813,0.194 z" transform="translate(258.531 117.89)" class="color231f20 svgShape"></path><path fill="#ffffff" d="m 0,0 c -0.491,-0.052 -0.878,-0.091 -1.162,-0.116 -0.284,-0.026 -0.684,-0.039 -1.201,-0.039 -1.652,0 -2.801,0.29 -3.446,0.869 -0.646,0.58 -0.968,1.642 -0.968,3.188 v 12.403 h -3.138 v 2.556 h 3.138 v 5.538 h 3.059 V 18.861 H 0 V 16.305 H -3.718 V 5.297 c 0,-0.618 0.025,-1.12 0.077,-1.507 0.052,-0.385 0.155,-0.682 0.31,-0.888 0.155,-0.205 0.368,-0.341 0.639,-0.405 0.271,-0.064 0.626,-0.096 1.065,-0.096 0.284,0 0.548,0.013 0.794,0.039 C -0.588,2.465 -0.31,2.53 0,2.634 Z" transform="translate(273.798 108.053)" class="color231f20 svgShape"></path><path fill="#ffffff" d="m 0,0 v 11.801 c 0,1.812 -0.304,3.079 -0.91,3.805 -0.607,0.723 -1.672,1.086 -3.195,1.086 -1.188,0 -2.208,-0.297 -3.06,-0.893 -0.852,-0.595 -1.459,-1.424 -1.82,-2.484 C -9.063,13.082 -9.127,12.836 -9.179,12.577 -9.231,12.318 -9.27,12.027 -9.295,11.704 -9.321,11.38 -9.341,10.992 -9.353,10.539 -9.367,10.086 -9.372,9.524 -9.372,8.851 V 0 h -3.06 v 25.794 h 2.982 v -9.799 c 1.394,2.169 3.472,3.253 6.235,3.253 1.343,0 2.485,-0.245 3.428,-0.736 0.942,-0.49 1.659,-1.187 2.149,-2.091 0.258,-0.491 0.439,-1.059 0.542,-1.704 0.104,-0.646 0.155,-1.51 0.155,-2.595 L 3.059,0 Z" transform="translate(289.623 108.208)" class="color231f20 svgShape"></path><path fill="#ffffff" d="M 0,0 C 0,2.278 -0.523,4.064 -1.569,5.358 -2.614,6.653 -4.054,7.3 -5.887,7.3 -7.72,7.3 -9.173,6.64 -10.244,5.32 -11.316,4 -11.851,2.226 -11.851,0 c 0,-2.33 0.535,-4.142 1.607,-5.436 1.071,-1.295 2.55,-1.942 4.435,-1.942 1.807,0 3.227,0.654 4.26,1.96 C -0.517,-4.11 0,-2.305 0,0 m 3.137,-0.02 c 0,-3.124 -0.788,-5.557 -2.362,-7.3 -1.575,-1.742 -3.77,-2.614 -6.584,-2.614 -1.394,0 -2.66,0.232 -3.796,0.697 -1.136,0.465 -2.105,1.123 -2.905,1.975 -0.8,0.852 -1.413,1.891 -1.839,3.118 -0.426,1.226 -0.639,2.601 -0.639,4.124 0,1.498 0.213,2.853 0.639,4.067 0.426,1.213 1.039,2.253 1.839,3.118 0.8,0.865 1.763,1.53 2.886,1.994 1.123,0.465 2.382,0.697 3.776,0.697 1.394,0 2.646,-0.232 3.757,-0.697 C -0.981,8.695 -0.039,8.037 0.736,7.184 1.51,6.332 2.104,5.299 2.518,4.086 2.93,2.872 3.137,1.504 3.137,-0.02" transform="translate(309.902 117.6)" class="color231f20 svgShape"></path><path fill="#ffffff" d="m 0,0 v 11.024 c 0,1.088 -0.065,1.993 -0.194,2.718 -0.129,0.724 -0.348,1.306 -0.658,1.746 -0.31,0.44 -0.717,0.751 -1.22,0.932 -0.504,0.181 -1.143,0.272 -1.917,0.272 -1.084,0 -2.053,-0.252 -2.905,-0.757 -0.852,-0.504 -1.459,-1.197 -1.82,-2.077 -0.13,-0.284 -0.233,-0.583 -0.31,-0.893 -0.078,-0.311 -0.142,-0.647 -0.194,-1.009 -0.052,-0.362 -0.09,-0.782 -0.116,-1.261 -0.026,-0.48 -0.038,-1.029 -0.038,-1.65 V 0 h -3.06 v 18.707 h 2.866 v -2.906 c 0.826,1.214 1.743,2.092 2.749,2.634 1.008,0.543 2.247,0.813 3.718,0.813 1.24,0 2.337,-0.245 3.293,-0.736 0.955,-0.49 1.651,-1.162 2.091,-2.013 0.155,-0.285 0.284,-0.569 0.387,-0.852 0.103,-0.285 0.181,-0.595 0.232,-0.93 0.052,-0.336 0.091,-0.71 0.117,-1.123 0.025,-0.414 0.038,-0.917 0.038,-1.511 L 3.059,0 Z" transform="translate(328.572 108.208)" class="color231f20 svgShape"></path><path fill="#ffffff" d="m 0,0 c -0.094,-1.157 -0.35,-2.202 -0.77,-3.136 -0.42,-0.933 -0.98,-1.726 -1.68,-2.38 -0.7,-0.653 -1.522,-1.157 -2.464,-1.511 -0.943,-0.355 -1.974,-0.533 -3.094,-0.533 -1.288,0 -2.46,0.229 -3.514,0.686 -1.055,0.458 -1.956,1.11 -2.702,1.96 -0.747,0.85 -1.321,1.872 -1.722,3.066 -0.402,1.195 -0.602,2.53 -0.602,4.004 0,1.456 0.21,2.786 0.63,3.99 0.42,1.205 1.012,2.236 1.778,3.094 0.765,0.859 1.68,1.527 2.744,2.002 1.064,0.477 2.249,0.714 3.556,0.714 1.008,0 1.955,-0.149 2.842,-0.447 0.886,-0.299 1.666,-0.72 2.338,-1.261 0.672,-0.541 1.222,-1.181 1.652,-1.918 0.429,-0.737 0.69,-1.545 0.784,-2.422 h -1.764 c -0.299,1.401 -0.976,2.501 -2.03,3.304 -1.055,0.803 -2.357,1.204 -3.906,1.204 -1.027,0 -1.96,-0.195 -2.8,-0.588 -0.84,-0.391 -1.564,-0.952 -2.17,-1.68 -0.607,-0.728 -1.074,-1.6 -1.4,-2.618 -0.327,-1.017 -0.49,-2.141 -0.49,-3.374 0,-1.251 0.163,-2.38 0.49,-3.387 0.326,-1.008 0.784,-1.868 1.372,-2.577 0.588,-0.71 1.306,-1.259 2.156,-1.652 0.849,-0.392 1.787,-0.588 2.814,-0.588 0.952,0 1.792,0.15 2.52,0.448 0.728,0.298 1.348,0.714 1.862,1.246 0.513,0.533 0.919,1.171 1.218,1.918 0.298,0.747 0.504,1.559 0.616,2.436 z" transform="translate(142.8 78.038)" class="color231f20 svgShape"></path><path fill="#ffffff" d="m 0,0 v 8.428 c 0,1.232 -0.248,2.207 -0.742,2.926 -0.495,0.718 -1.405,1.078 -2.73,1.078 -0.878,0 -1.591,-0.173 -2.142,-0.518 -0.551,-0.346 -0.98,-0.798 -1.288,-1.358 C -7.21,9.996 -7.42,9.37 -7.532,8.68 -7.644,7.989 -7.7,7.289 -7.7,6.58 V 0 h -1.624 v 18.648 h 1.596 V 10.92 c 0.41,0.989 1.022,1.722 1.834,2.198 0.812,0.476 1.759,0.714 2.842,0.714 0.858,0 1.586,-0.126 2.184,-0.378 C -0.271,13.202 0.214,12.848 0.588,12.39 0.961,11.933 1.232,11.387 1.4,10.752 1.568,10.117 1.652,9.417 1.652,8.652 V 0 Z" transform="translate(154.302 70.898)" class="color231f20 svgShape"></path><path fill="#ffffff" d="m 0,0 c -0.243,-0.205 -0.518,-0.354 -0.826,-0.447 -0.308,-0.094 -0.808,-0.188 -1.498,-0.281 l -1.372,-0.196 c -0.429,-0.055 -0.878,-0.136 -1.344,-0.237 -0.467,-0.104 -0.896,-0.257 -1.288,-0.463 -0.392,-0.205 -0.714,-0.48 -0.966,-0.825 -0.252,-0.346 -0.378,-0.789 -0.378,-1.33 0,-0.803 0.27,-1.438 0.812,-1.905 0.541,-0.466 1.288,-0.7 2.24,-0.7 0.634,0 1.232,0.099 1.792,0.294 0.56,0.196 1.05,0.477 1.47,0.84 0.42,0.364 0.751,0.808 0.994,1.33 C -0.122,-3.397 0,-2.818 0,-2.184 Z M 3.108,-7.224 C 2.716,-7.354 2.286,-7.42 1.82,-7.42 c -0.411,0 -0.733,0.07 -0.966,0.21 -0.234,0.141 -0.406,0.322 -0.518,0.546 -0.112,0.225 -0.182,0.48 -0.21,0.77 -0.028,0.29 -0.042,0.593 -0.042,0.911 -0.616,-0.953 -1.326,-1.643 -2.128,-2.073 -0.803,-0.428 -1.792,-0.643 -2.968,-0.643 -1.382,0 -2.464,0.331 -3.248,0.993 -0.784,0.663 -1.176,1.601 -1.176,2.814 0,2.446 1.67,3.836 5.012,4.172 l 2.268,0.224 c 0.821,0.094 1.386,0.257 1.694,0.49 C -0.154,1.228 0,1.634 0,2.212 0,2.791 -0.084,3.271 -0.252,3.654 -0.42,4.037 -0.658,4.341 -0.966,4.564 -1.274,4.788 -1.647,4.942 -2.086,5.026 -2.525,5.11 -3.006,5.152 -3.528,5.152 -4.704,5.152 -5.586,4.9 -6.174,4.396 -6.762,3.893 -7.112,3.09 -7.224,1.988 h -1.568 c 0.074,1.456 0.578,2.576 1.512,3.361 0.933,0.784 2.249,1.175 3.948,1.175 0.915,0 1.685,-0.093 2.31,-0.28 C -0.397,6.058 0.112,5.769 0.504,5.376 0.896,4.984 1.176,4.494 1.344,3.906 1.512,3.318 1.596,2.613 1.596,1.792 v -5.964 c 0,-0.43 0.009,-0.769 0.028,-1.021 0.018,-0.252 0.056,-0.445 0.112,-0.575 0.056,-0.13 0.144,-0.214 0.266,-0.252 0.121,-0.038 0.284,-0.055 0.49,-0.055 0.112,0 0.205,0.009 0.28,0.027 0.074,0.019 0.186,0.047 0.336,0.084 z" transform="translate(167.507 78.206)" class="color231f20 svgShape"></path><path fill="#ffffff" d="m 0,0 v 8.12 c 0,0.597 -0.037,1.152 -0.112,1.666 -0.074,0.513 -0.227,0.966 -0.46,1.358 -0.233,0.392 -0.572,0.7 -1.018,0.924 -0.447,0.224 -1.033,0.336 -1.758,0.336 -0.856,0 -1.562,-0.159 -2.12,-0.476 -0.558,-0.318 -1,-0.738 -1.325,-1.26 C -7.119,10.146 -7.347,9.543 -7.477,8.862 -7.607,8.181 -7.672,7.476 -7.672,6.748 V 0 h -1.652 v 13.468 h 1.568 L -7.757,10.92 c 0.54,0.971 1.177,1.698 1.912,2.184 0.735,0.485 1.68,0.728 2.834,0.728 0.893,0 1.638,-0.122 2.234,-0.364 0.595,-0.242 1.074,-0.593 1.438,-1.05 C 1.023,11.96 1.28,11.41 1.428,10.766 1.577,10.122 1.652,9.408 1.652,8.624 V 0 Z" transform="translate(181.591 70.898)" class="color231f20 svgShape"></path><path fill="#ffffff" d="m 186.141,84.366 h 1.652 V 70.898 h -1.652 z m 0,5.292 h 1.652 V 86.97 h -1.652 z" class="color231f20 svgShape"></path><path fill="#ffffff" d="m 0,0 c -0.243,-0.205 -0.518,-0.354 -0.826,-0.447 -0.308,-0.094 -0.808,-0.188 -1.498,-0.281 l -1.372,-0.196 c -0.429,-0.055 -0.878,-0.136 -1.344,-0.237 -0.467,-0.104 -0.896,-0.257 -1.288,-0.463 -0.392,-0.205 -0.714,-0.48 -0.966,-0.825 -0.252,-0.346 -0.378,-0.789 -0.378,-1.33 0,-0.803 0.27,-1.438 0.812,-1.905 0.541,-0.466 1.288,-0.7 2.24,-0.7 0.634,0 1.232,0.099 1.792,0.294 0.56,0.196 1.05,0.477 1.47,0.84 0.42,0.364 0.751,0.808 0.994,1.33 C -0.122,-3.397 0,-2.818 0,-2.184 Z M 3.108,-7.224 C 2.716,-7.354 2.286,-7.42 1.82,-7.42 c -0.411,0 -0.733,0.07 -0.966,0.21 -0.234,0.141 -0.406,0.322 -0.518,0.546 -0.112,0.225 -0.182,0.48 -0.21,0.77 -0.028,0.29 -0.042,0.593 -0.042,0.911 -0.616,-0.953 -1.326,-1.643 -2.128,-2.073 -0.803,-0.428 -1.792,-0.643 -2.968,-0.643 -1.382,0 -2.464,0.331 -3.248,0.993 -0.784,0.663 -1.176,1.601 -1.176,2.814 0,2.446 1.67,3.836 5.012,4.172 l 2.268,0.224 c 0.821,0.094 1.386,0.257 1.694,0.49 C -0.154,1.228 0,1.634 0,2.212 0,2.791 -0.084,3.271 -0.252,3.654 -0.42,4.037 -0.658,4.341 -0.966,4.564 -1.274,4.788 -1.647,4.942 -2.086,5.026 -2.525,5.11 -3.006,5.152 -3.528,5.152 -4.704,5.152 -5.586,4.9 -6.174,4.396 -6.762,3.893 -7.112,3.09 -7.224,1.988 h -1.568 c 0.074,1.456 0.578,2.576 1.512,3.361 0.933,0.784 2.249,1.175 3.948,1.175 0.915,0 1.685,-0.093 2.31,-0.28 C -0.397,6.058 0.112,5.769 0.504,5.376 0.896,4.984 1.176,4.494 1.344,3.906 1.512,3.318 1.596,2.613 1.596,1.792 v -5.964 c 0,-0.43 0.009,-0.769 0.028,-1.021 0.018,-0.252 0.056,-0.445 0.112,-0.575 0.056,-0.13 0.144,-0.214 0.266,-0.252 0.121,-0.038 0.284,-0.055 0.49,-0.055 0.112,0 0.205,0.009 0.28,0.027 0.074,0.019 0.186,0.047 0.336,0.084 z" transform="translate(199.477 78.206)" class="color231f20 svgShape"></path><path fill="#ffffff" d="m 208.632,78.71 h 6.58 v -1.567 h -6.58 z" class="color231f20 svgShape"></path><path fill="#ffffff" d="m 0,0 c -0.094,-1.157 -0.35,-2.202 -0.77,-3.136 -0.42,-0.933 -0.98,-1.726 -1.68,-2.38 -0.7,-0.653 -1.522,-1.157 -2.464,-1.511 -0.943,-0.355 -1.974,-0.533 -3.094,-0.533 -1.288,0 -2.46,0.229 -3.514,0.686 -1.055,0.458 -1.956,1.11 -2.702,1.96 -0.747,0.85 -1.321,1.872 -1.722,3.066 -0.402,1.195 -0.602,2.53 -0.602,4.004 0,1.456 0.21,2.786 0.63,3.99 0.42,1.205 1.012,2.236 1.778,3.094 0.765,0.859 1.68,1.527 2.744,2.002 1.064,0.477 2.249,0.714 3.556,0.714 1.008,0 1.955,-0.149 2.842,-0.447 0.886,-0.299 1.666,-0.72 2.338,-1.261 0.672,-0.541 1.222,-1.181 1.652,-1.918 0.429,-0.737 0.69,-1.545 0.784,-2.422 h -1.764 c -0.299,1.401 -0.976,2.501 -2.03,3.304 -1.055,0.803 -2.357,1.204 -3.906,1.204 -1.027,0 -1.96,-0.195 -2.8,-0.588 -0.84,-0.391 -1.564,-0.952 -2.17,-1.68 -0.607,-0.728 -1.074,-1.6 -1.4,-2.618 -0.327,-1.017 -0.49,-2.141 -0.49,-3.374 0,-1.251 0.163,-2.38 0.49,-3.387 0.326,-1.008 0.784,-1.868 1.372,-2.577 0.588,-0.71 1.306,-1.259 2.156,-1.652 0.849,-0.392 1.787,-0.588 2.814,-0.588 0.952,0 1.792,0.15 2.52,0.448 0.728,0.298 1.348,0.714 1.862,1.246 0.513,0.533 0.919,1.171 1.218,1.918 0.298,0.747 0.504,1.559 0.616,2.436 z" transform="translate(238.592 78.038)" class="color231f20 svgShape"></path><path fill="#ffffff" d="M 0,0 C -1.083,0 -1.956,-0.163 -2.618,-0.489 -3.281,-0.816 -3.79,-1.273 -4.144,-1.861 -4.499,-2.45 -4.737,-3.141 -4.858,-3.934 -4.979,-4.728 -5.04,-5.591 -5.04,-6.523 v -5.489 H -6.692 V 1.456 h 1.568 l -0.001,-3.22 c 0.467,1.213 1.116,2.086 1.947,2.618 0.83,0.533 1.89,0.798 3.178,0.798 z" transform="translate(247.571 82.91)" class="color231f20 svgShape"></path><path fill="#ffffff" d="M 0,0 C -0.093,1.502 -0.524,2.686 -1.292,3.549 -2.06,4.412 -3.071,4.844 -4.325,4.844 -5.056,4.844 -5.684,4.713 -6.208,4.45 -6.732,4.187 -7.172,3.83 -7.528,3.38 -7.884,2.929 -8.165,2.412 -8.371,1.831 -8.577,1.249 -8.717,0.639 -8.792,0 Z m -8.792,-1.315 c 0.037,-1.775 0.445,-3.122 1.222,-4.047 0.777,-0.924 1.896,-1.386 3.357,-1.386 2.21,0 3.586,1.157 4.129,3.473 h 1.596 c -0.318,-1.55 -0.97,-2.736 -1.96,-3.557 -0.989,-0.821 -2.249,-1.231 -3.78,-1.231 -0.952,0 -1.811,0.163 -2.576,0.489 -0.765,0.327 -1.419,0.794 -1.96,1.4 -0.542,0.607 -0.957,1.334 -1.246,2.184 -0.289,0.849 -0.434,1.806 -0.434,2.87 0,1.064 0.15,2.044 0.448,2.94 0.299,0.896 0.724,1.666 1.274,2.31 0.551,0.644 1.204,1.143 1.96,1.498 0.756,0.354 1.582,0.532 2.478,0.532 0.914,0 1.736,-0.168 2.464,-0.504 C -1.092,5.32 -0.472,4.835 0.042,4.2 0.555,3.565 0.952,2.805 1.232,1.918 c 0.28,-0.887 0.42,-1.89 0.42,-3.01 v -0.223 z" transform="translate(258.306 78.57)" class="color231f20 svgShape"></path><path fill="#ffffff" d="m 0,0 c -0.317,-0.037 -0.569,-0.061 -0.756,-0.07 -0.187,-0.009 -0.42,-0.014 -0.7,-0.014 -0.653,0 -1.176,0.047 -1.568,0.14 -0.392,0.093 -0.691,0.295 -0.896,0.603 -0.205,0.309 -0.341,0.763 -0.406,1.362 -0.066,0.598 -0.098,1.394 -0.098,2.385 v 7.746 h -2.352 v 1.316 h 2.352 v 4.116 h 1.652 V 13.468 H 0 V 12.152 H -2.772 V 3.618 c 0,-0.487 0.019,-0.88 0.056,-1.18 C -2.679,2.14 -2.6,1.905 -2.478,1.737 -2.356,1.568 -2.184,1.456 -1.96,1.4 -1.736,1.344 -1.447,1.316 -1.092,1.316 -0.812,1.316 -0.448,1.344 0,1.4 Z" transform="translate(267.134 70.898)" class="color231f20 svgShape"></path><path fill="#ffffff" d="M 0,0 C -0.093,1.502 -0.524,2.686 -1.292,3.549 -2.06,4.412 -3.071,4.844 -4.325,4.844 -5.056,4.844 -5.684,4.713 -6.208,4.45 -6.732,4.187 -7.172,3.83 -7.528,3.38 -7.884,2.929 -8.165,2.412 -8.371,1.831 -8.577,1.249 -8.717,0.639 -8.792,0 Z m -8.792,-1.315 c 0.037,-1.775 0.445,-3.122 1.222,-4.047 0.777,-0.924 1.896,-1.386 3.357,-1.386 2.21,0 3.586,1.157 4.129,3.473 h 1.596 c -0.318,-1.55 -0.97,-2.736 -1.96,-3.557 -0.989,-0.821 -2.249,-1.231 -3.78,-1.231 -0.952,0 -1.811,0.163 -2.576,0.489 -0.765,0.327 -1.419,0.794 -1.96,1.4 -0.542,0.607 -0.957,1.334 -1.246,2.184 -0.289,0.849 -0.434,1.806 -0.434,2.87 0,1.064 0.15,2.044 0.448,2.94 0.299,0.896 0.724,1.666 1.274,2.31 0.551,0.644 1.204,1.143 1.96,1.498 0.756,0.354 1.582,0.532 2.478,0.532 0.914,0 1.736,-0.168 2.464,-0.504 C -1.092,5.32 -0.472,4.835 0.042,4.2 0.555,3.565 0.952,2.805 1.232,1.918 c 0.28,-0.887 0.42,-1.89 0.42,-3.01 v -0.223 z" transform="translate(278.373 78.57)" class="color231f20 svgShape"></path></g><g clip-path="url(#c)"><path fill="#ffffff" d="m 0,0 c -1.136,0 -1.459,0.199 -1.459,0.199 -0.077,0.057 -0.149,0.129 -0.175,0.366 -0.011,0.104 -0.023,0.27 -0.034,0.507 v 61.864 c 0,8.453 -1.668,18.156 -14.672,18.156 -4.087,0 -7.801,-1.545 -10.533,-4.27 v 1.909 1.152 c 0,0.827 -0.673,1.497 -1.502,1.497 h -0.568 c -0.218,0 -0.434,-0.048 -0.633,-0.139 -0.189,-0.088 -0.829,-0.326 -2.663,-0.636 -1.408,-0.237 -2.613,-0.356 -3.583,-0.356 -0.829,0 -1.502,-0.67 -1.502,-1.497 v -1.237 c 0,-0.827 0.673,-1.497 1.502,-1.497 1.32,0 1.665,-0.207 1.686,-0.22 0.058,-0.037 0.169,-0.107 0.223,-0.398 0.037,-0.21 0.099,-0.748 0.13,-2.03 V 0.634 C -33.786,0.597 -33.788,0.564 -33.79,0.543 -33.809,0.38 -33.87,0.262 -33.937,0.188 -33.951,0.18 -34.28,0 -35.495,0 h -0.836 c -0.829,0 -1.502,-0.671 -1.502,-1.497 V -2.74 c 0,-0.826 0.673,-1.497 1.502,-1.497 h 4.05 3.906 3.278 c 0.829,0 1.502,0.671 1.502,1.497 v 1.243 c 0,0.826 -0.673,1.497 -1.502,1.497 -1.148,0 -1.461,0.202 -1.465,0.204 -0.062,0.046 -0.147,0.109 -0.172,0.34 -0.026,0.277 -0.086,1.248 -0.086,4.299 v 0.416 c 0,0.129 -0.022,0.253 -0.053,0.373 v 52.899 c 0,8.287 1.704,13.423 10.189,13.423 7.483,0 8.112,-2.203 8.112,-9.018 V 5.617 C -8.6,5.501 -8.62,5.383 -8.62,5.259 V 4.843 C -8.62,1.838 -8.661,0.849 -8.697,0.533 -8.712,0.375 -8.772,0.261 -8.842,0.187 -8.854,0.179 -9.184,0 -10.397,0 h -0.834 c -0.83,0 -1.502,-0.671 -1.502,-1.497 V -2.74 c 0,-0.826 0.672,-1.497 1.502,-1.497 H -7.07 -3.17 0 c 0.829,0 1.502,0.671 1.502,1.497 v 1.243 C 1.502,-0.671 0.829,0 0,0" transform="translate(272.831 176.366)" class="color231f20 svgShape"></path><path fill="#ffffff" d="m 0,0 c -1.341,0 -1.695,0.249 -1.704,0.256 -0.103,0.076 -0.215,0.183 -0.247,0.5 -0.039,0.375 -0.084,1.317 -0.094,3.65 0,0.009 0.002,0.017 0.002,0.026 l -0.415,153.68 c 0.002,0.034 0.01,0.067 0.01,0.102 v 7.336 c 0,0.829 -0.672,1.5 -1.5,1.5 h -0.565 c -0.218,0 -0.434,-0.048 -0.631,-0.14 -0.192,-0.088 -0.833,-0.328 -2.664,-0.636 -1.383,-0.235 -2.585,-0.354 -3.575,-0.354 -0.828,0 -1.5,-0.671 -1.5,-1.5 v -1.241 c 0,-0.829 0.672,-1.5 1.5,-1.5 1.324,0 1.668,-0.211 1.688,-0.224 0.052,-0.034 0.163,-0.104 0.22,-0.41 0.036,-0.191 0.079,-0.605 0.11,-1.455 V 4.428 c 0,-0.067 0.011,-0.131 0.02,-0.195 C -9.356,1.908 -9.393,1.032 -9.426,0.725 -9.447,0.517 -9.529,0.358 -9.658,0.229 -9.673,0.22 -10.037,0 -11.449,0 h -0.922 c -0.828,0 -1.5,-0.672 -1.5,-1.5 v -1.369 c 0,-0.828 0.672,-1.5 1.5,-1.5 H 0 c 0.828,0 1.5,0.672 1.5,1.5 V -1.5 C 1.5,-0.672 0.828,0 0,0" transform="translate(345.804 176.472)" class="color231f20 svgShape"></path><path fill="#ffffff" d="m 0,0 c 2.829,0 5.045,2.217 5.045,5.048 0,2.83 -2.216,5.048 -5.045,5.048 -2.831,0 -5.048,-2.218 -5.048,-5.048 C -5.048,2.217 -2.831,0 0,0" transform="translate(358.678 247.375)" class="color231f20 svgShape"></path><path fill="#ffffff" d="m 0,0 c -1.341,0 -1.695,0.249 -1.704,0.256 -0.103,0.076 -0.215,0.184 -0.247,0.5 -0.041,0.396 -0.088,1.447 -0.095,4.081 0,0.012 0.003,0.024 0.003,0.036 l -0.418,154.643 c 0.004,0.041 0.013,0.081 0.013,0.124 v 7.392 c 0,0.835 -0.672,1.512 -1.5,1.512 h -0.565 c -0.218,0 -0.434,-0.049 -0.631,-0.141 -0.192,-0.09 -0.833,-0.331 -2.664,-0.641 -1.383,-0.237 -2.585,-0.357 -3.575,-0.357 -0.828,0 -1.5,-0.676 -1.5,-1.511 v -1.251 c 0,-0.835 0.672,-1.512 1.5,-1.512 1.324,0 1.668,-0.213 1.688,-0.226 0.052,-0.034 0.163,-0.104 0.22,-0.413 0.036,-0.192 0.079,-0.609 0.11,-1.466 V 4.869 c 0,-0.071 0.011,-0.14 0.021,-0.208 C -9.351,2.018 -9.391,1.05 -9.426,0.725 -9.447,0.517 -9.529,0.358 -9.658,0.229 -9.673,0.22 -10.037,0 -11.449,0 h -0.922 c -0.828,0 -1.5,-0.672 -1.5,-1.5 v -1.369 c 0,-0.828 0.672,-1.5 1.5,-1.5 H 0 c 0.828,0 1.5,0.672 1.5,1.5 V -1.5 C 1.5,-0.672 0.828,0 0,0" transform="translate(364.555 47.597)" class="color231f20 svgShape"></path><path fill="#ffffff" d="M 0,0 C 1.71,6.85 7.66,11.62 15.17,11.62 22.44,11.62 28.4,6.77 30.14,0 Z m 15.08,18.46 c -12.43,0 -22.16,-9.81 -22.16,-22.33 0,-12.17 9.98,-22.07 22.25,-22.07 3.42,0 6.84,0.82 9.92,2.4 0.03,0.01 0.05,0.02 0.07,0.03 1.02,0.48 1.89,1 2.5,1.51 v 0.01 c 0.01,0 0.03,0.01 0.04,0.02 0.01,0.01 0.02,0.02 0.04,0.04 0.01,0 0.01,0 0.02,0.01 0.03,0.03 0.07,0.06 0.1,0.09 1.5,1.19 2.31,3.04 2.16,4.94 -0.22,3.02 -2.77,5.38 -5.79,5.38 -0.1,0 -0.21,-0.01 -0.31,-0.02 h -0.03 -0.07 c -0.01,0 -0.04,0 -0.07,-0.01 h -0.02 -0.07 -0.07 c -2.16,-0.16 -4.85,-1.35 -5.56,-6.09 0,-0.03 -0.01,-0.05 -0.01,-0.08 -0.01,-0.01 -0.01,-0.01 -0.01,-0.02 v -0.01 c -0.18,-0.84 -1.23,-1.2 -2.18,-1.35 -0.23,-0.01 -0.44,-0.02 -0.66,-0.02 -2.33,0 -4.52,0.46 -6.49,1.3 -0.01,0 -0.01,0.01 -0.02,0.01 -0.01,0.01 -0.02,0.01 -0.03,0.02 0,0 -0.02,0.01 -0.04,0.02 -0.02,0.01 -0.05,0.03 -0.07,0.04 -0.69,0.42 -1.2,0.68 -1.62,0.8 -3.79,2.2 -6.47,5.91 -7.2,10.32 h 36 c 0.79,0 1.44,0.61 1.49,1.39 0.02,0.45 0.04,0.89 0.04,1.34 0,12.52 -9.73,22.33 -22.15,22.33" transform="translate(196.07 197.218)" class="color231f20 svgShape"></path><path fill="#ffffff" d="m 0,0 c 0.321,-5.003 -5.173,-8.785 -9.63,-6.341 -1.112,0.343 -2.887,3.467 -4.54,3.45 -4.229,-0.822 -2.933,-8.979 -3.2,-12.104 0,0 0,-55.795 0,-55.795 0.105,-1.31 -0.124,-1.581 0.24,-2.113 0.312,-0.074 3.249,-0.157 2.96,-1.695 0.09,-1.077 0.003,-2.785 -1.5,-2.742 0,0 -11.22,0 -11.22,0 -0.83,0 -1.5,0.678 -1.5,1.495 -0.5,3.552 2.132,2.435 3.89,2.932 0.594,1.002 0.072,70.505 0.24,73.133 0.453,2.787 -3.278,0.306 -3.5,3.06 -0.605,3.425 2.513,2.581 5.08,3.091 3.499,0.774 5.706,1.785 5.36,-2.094 -0.02,-0.01 -0.03,-0.03 -0.05,-0.04 V 3.958 c 0.02,0.02 0.03,0.03 0.05,0.05 V 4.277 C -12.111,10.308 0.112,9.179 0,0" transform="translate(163.724 249.453)" class="color231f20 svgShape"></path><path fill="#ffffff" d="m 0,0 v -0.279 c 0.02,0.02 0.03,0.03 0.05,0.05 V 0.04 C 0.03,0.03 0.02,0.01 0,0" transform="translate(146.354 253.69)" class="color231f20 svgShape"></path><path fill="#ffffff" d="m 0,0 v -0.279 c 0.02,0.02 0.03,0.03 0.05,0.05 V 0.04 C 0.03,0.03 0.02,0.01 0,0" transform="translate(146.354 253.69)" class="color231f20 svgShape"></path><path fill="#ffffff" d="m 0,0 4.257,43.568 0.768,7.855 1.834,18.764 0.11,1.088 L 7.078,70.187 8.913,51.423 9.68,43.568 13.957,0 Z m 31.902,-81.136 c -1.137,0 -1.446,0.199 -1.456,0.199 -0.059,0.05 -0.109,0.1 -0.149,0.22 0,0.02 -0.01,0.04 -0.01,0.06 -0.01,0.02 -0.01,0.05 -0.01,0.079 -0.01,0.07 -0.02,0.16 -0.02,0.29 0,0.03 0,0.07 -0.01,0.11 l -0.588,5.459 -7.487,70.776 -5.184,47.91 -3.709,34.275 -0.548,5.34 -0.09,0.838 c -0.269,0.968 -1.166,1.677 -2.233,1.677 H 9.541 c -0.339,0 -0.668,-0.07 -0.977,-0.21 C 8.275,85.748 7.278,85.378 4.456,84.909 2.323,84.54 0.469,84.36 -1.067,84.36 c -1.276,0 -2.313,-1.028 -2.313,-2.305 v -1.917 c 0,-1.277 1.037,-2.305 2.313,-2.305 0.748,0 1.296,-0.04 1.695,-0.11 l -3.649,-33.756 -5.194,-47.9 -7.666,-70.806 -0.638,-5.898 v -0.01 c -0.02,-0.13 -0.06,-0.26 -0.15,-0.35 -0.01,-0.01 -0.389,-0.189 -1.595,-0.189 h -0.837 c -0.828,0 -1.496,-0.669 -1.496,-1.498 v -1.247 c 0,-0.829 0.668,-1.507 1.496,-1.507 h 13.01 c 0.827,0 1.495,0.678 1.495,1.507 v 1.247 c 0,0.829 -0.668,1.498 -1.495,1.498 -1.137,0 -1.446,0.199 -1.456,0.199 -0.079,0.07 -0.149,0.13 -0.169,0.36 -0.02,0.189 -0.04,0.559 -0.05,1.257 l 6.978,71.575 h 15.533 l 7.068,-72.184 c -0.01,-0.319 -0.02,-0.509 -0.03,-0.618 -0.02,-0.13 -0.06,-0.26 -0.15,-0.35 -0.009,-0.01 -0.697,-0.189 -1.904,-0.189 h -0.837 c -0.828,0 -1.495,-0.669 -1.495,-1.498 v -1.247 c 0,-0.829 0.667,-1.507 1.495,-1.507 h 13.01 c 0.827,0 1.495,0.678 1.495,1.507 v 1.247 c 0,0.829 -0.668,1.498 -1.495,1.498" transform="translate(95.818 257.445)" class="color231f20 svgShape"></path><path fill="#ffffff" d="m 0,0 c -2.294,-4.949 -8.114,-8.396 -14.155,-8.396 -6.752,0 -11.691,4.193 -13.524,11.48 -0.22,0.978 -0.06,1.794 0.451,2.439 0.611,0.767 1.683,1.22 2.865,1.22 1.493,0 3.316,-0.776 3.526,-2.973 l 0.01,-0.091 0.03,-0.091 c 1.253,-3.407 3.837,-5.362 7.083,-5.362 3.165,0 6.181,1.885 7.333,4.596 0.601,1.421 1.162,4.284 -1.853,7.459 l -0.031,0.02 -0.03,0.03 c -1.452,1.24 -3.816,2.167 -6.311,3.145 -3.125,1.23 -6.361,2.49 -7.683,4.344 l -0.03,0.051 -0.04,0.04 c -2.855,2.983 -3.627,6.995 -2.044,10.724 1.883,4.476 6.562,7.368 11.911,7.368 4.077,0 9.006,-2.056 11.22,-3.951 l 0.02,-0.02 0.02,-0.01 c 2.083,-1.532 2.224,-3.931 1.663,-5.675 -0.551,-1.703 -2.124,-3.709 -4.709,-3.709 -0.19,0 -0.39,0.02 -0.581,0.041 h -0.07 c -0.05,0 -0.15,0.01 -0.15,0.01 -1.232,0.09 -2.244,0.504 -3.045,1.239 -0.802,0.736 -1.383,1.805 -1.743,3.175 l -0.01,0.031 -0.01,0.03 c -0.551,1.482 -2.194,2.51 -3.997,2.51 -1.463,0 -2.685,-0.666 -3.336,-1.825 -0.792,-1.411 -1.002,-2.641 -0.632,-3.759 0.712,-2.157 3.386,-3.347 6.492,-4.728 2.905,-1.3 6.201,-2.761 8.425,-5.231 C 0.992,9.404 2.034,4.385 0,0" transform="translate(182.206 179.673)" class="color231f20 svgShape"></path><path fill="#ffffff" d="m 0,0 c 8.482,0 14.406,-6.136 14.406,-14.921 0,-8.11 -4.374,-16.293 -14.147,-16.293 -9.29,0 -14.15,7.981 -14.15,15.864 C -13.891,-7.968 -8.58,0 0,0 M 30.893,3.926 C 29.926,5.574 28.464,6.594 26.543,6.96 25.29,7.196 23.835,7.052 22.199,6.531 20.52,5.996 18.921,4.777 17.449,2.914 16.735,2.013 16.126,0.934 15.613,-0.334 11.999,4.084 6.477,6.588 0.174,6.588 c -12.309,0 -20.905,-9.022 -20.905,-21.938 0,-13.011 8.865,-22.455 21.078,-22.455 4.923,0 9.745,1.805 13.181,4.832 0.542,-2.177 0.634,-2.697 0.637,-2.713 0.113,-0.726 0.738,-1.26 1.472,-1.26 h 3.868 c 0.823,0 1.49,0.667 1.49,1.49 V -8.27 c 0.137,1.061 0.426,1.554 2.35,1.744 2.042,0.138 3.798,0.524 5.218,1.147 1.2,0.525 2.74,1.727 3.263,4.479 0.307,1.624 -0.007,3.248 -0.933,4.826" transform="translate(298.337 209.083)" class="color231f20 svgShape"></path></g></g></svg></g></svg>